<svg width="604" height="22" viewBox="0 0 604 22" fill="none" xmlns="http://www.w3.org/2000/svg">
<path opacity="0.4" d="M228.082 0.1479C228.293 0.149234 228.503 0.150883 228.71 0.152832C232.105 0.183806 235.353 0.299008 239.391 0.398404C239.394 0.39838 239.396 0.398356 239.398 0.398331C240.013 0.413276 240.644 0.428161 241.298 0.44177C246.558 0.557616 253.449 0.583978 263.893 0.492261C265.852 0.475877 267.742 0.473562 269.569 0.482992C278.432 0.530925 285.56 0.859884 290.189 1.20494C291.242 1.28266 292.324 1.32018 295.03 1.3421C296.826 1.35655 299.221 1.36428 302.707 1.38143C304.566 1.39059 306.734 1.40227 309.233 1.42039C317.594 1.47761 330.646 1.43007 342.722 1.4289C350.019 1.42661 356.96 1.43712 362.227 1.47496C364.674 1.49244 367.022 1.51722 369.457 1.54828C374.669 1.61555 379.905 1.7106 385.452 1.81477C392.849 1.95388 400.789 2.10939 409.984 2.23829C417.034 2.33719 423.881 2.75078 430.839 3.20761C431.724 3.26575 432.616 3.32451 433.505 3.38352C439.643 3.79069 445.92 4.20795 452.709 4.47394C464.809 4.94788 474.457 4.87585 485.165 4.78844C489.334 4.75399 493.702 4.7172 498.392 4.70809C505.85 4.69367 516.548 4.77423 527.293 4.82537C528.214 4.82972 529.116 4.8333 530.022 4.8371C530.026 4.83711 530.031 4.83712 530.036 4.83713C531.356 4.8426 532.646 4.84737 533.902 4.8513C542.411 4.87835 550.433 4.86273 556.597 4.78025C567.852 4.62528 572.034 4.36923 575.565 4.16332C576.859 4.08423 578.118 4.00558 579.551 3.92406C582.89 3.73418 587.262 3.53352 592.056 3.14024C594.824 2.9183 597.732 2.69859 600.563 2.38018C600.593 2.37671 600.622 2.37324 600.652 2.36976C601.942 2.22221 603.053 2.46563 603.113 2.94668C603.171 3.42611 602.149 3.96284 600.833 4.11314C597.896 4.44516 594.963 4.66487 592.194 4.88722C591.021 4.98032 589.857 5.06884 588.755 5.1444C588.6 5.5714 587.604 5.95323 586.405 6.01663C583.411 6.19259 574.196 6.88592 559.706 7.52564C560.714 7.59144 561.551 7.65592 562.259 7.71773C563.128 7.78983 563.789 7.85205 564.341 7.90529C565.518 8.01568 566.288 8.08801 567.689 8.12643C570.903 8.14191 575.951 8.06441 581.261 7.87637C582.587 7.82949 583.701 8.17295 583.721 8.65622C583.733 9.13987 582.637 9.58041 581.305 9.62775C581.278 9.62877 581.251 9.6298 581.224 9.63082C575.942 9.8171 570.732 9.89853 567.355 9.87958C566.495 9.87452 565.782 9.86262 565.213 9.85034C564.748 9.84067 564.228 9.82559 563.918 9.80122C563.878 9.79797 563.8 9.79134 563.708 9.78086C563.706 9.78059 563.705 9.78033 563.703 9.78006C563.652 9.77428 563.388 9.745 563.102 9.6774C563.044 9.66374 562.918 9.63321 562.771 9.58316C562.733 9.57963 562.695 9.5761 562.657 9.57257C562.126 9.52358 561.629 9.47284 561.052 9.42422C558.81 9.23288 555.314 9.00259 547.941 8.74425C544.427 8.62013 539.678 8.53094 533.897 8.46018C528.568 8.39496 522.392 8.34609 515.558 8.31083C516.507 8.35182 517.477 8.39162 518.448 8.42982C520.856 8.52568 523.331 8.61303 525.725 8.69477C526.675 8.72611 527.601 8.75653 528.533 8.78624C530.003 8.8342 531.582 8.88087 533.067 8.92537C533.344 8.93365 533.621 8.94186 533.896 8.95002C534.656 8.97159 535.407 8.99274 536.147 9.01372C536.149 9.01373 536.151 9.01373 536.154 9.01373C537.543 9.05387 539.014 9.09334 540.431 9.13285C540.93 9.14757 541.404 9.1616 541.916 9.17511C543.895 9.22889 545.832 9.27928 548.021 9.37717C548.279 9.39374 548.592 9.41519 548.811 9.43318C549.051 9.45211 549.279 9.4714 549.494 9.49108C549.684 9.50844 549.864 9.52613 550.036 9.54256C550.059 9.54474 550.082 9.54691 550.105 9.54909C550.298 9.56746 550.481 9.5844 550.656 9.60038C550.83 9.61634 550.998 9.6317 551.162 9.64491C551.164 9.6449 551.166 9.64489 551.167 9.64489C551.336 9.65843 551.476 9.66854 551.666 9.67993C551.904 9.6942 552.108 9.70504 552.354 9.71552C552.592 9.7257 552.838 9.73456 553.085 9.74206C553.332 9.74955 553.582 9.75586 553.834 9.76138C554.088 9.7669 554.335 9.77191 554.61 9.77595C554.878 9.78002 555.148 9.78328 555.418 9.78653C555.687 9.78978 555.958 9.79298 556.227 9.79588C556.844 9.8027 557.44 9.89483 557.894 10.0557C558.342 10.2166 558.587 10.4323 558.587 10.658C558.586 10.8836 558.338 11.1028 557.888 11.2692C557.431 11.4356 556.836 11.5348 556.218 11.5478C556.048 11.5513 555.878 11.555 555.705 11.5585C555.603 11.5605 555.499 11.5622 555.396 11.5641C555.117 11.5694 554.834 11.575 554.546 11.5794C554.252 11.5839 553.99 11.5872 553.704 11.59C553.421 11.5928 553.133 11.5949 552.837 11.5953C552.542 11.5956 552.239 11.5944 551.928 11.591C551.625 11.5878 551.274 11.5811 550.982 11.5719C550.764 11.5655 550.493 11.5541 550.266 11.5437C550.03 11.5328 549.795 11.5204 549.568 11.5074C549.34 11.4944 549.119 11.4805 548.906 11.4674C548.884 11.4661 548.861 11.4648 548.838 11.4634C548.65 11.4518 548.468 11.4405 548.295 11.4304C548.101 11.4192 547.933 11.4097 547.765 11.4016C547.581 11.3925 547.469 11.389 547.331 11.3851C545.485 11.363 543.229 11.3736 541.032 11.3806C540.764 11.3815 540.496 11.3822 540.23 11.3829C538.815 11.3878 537.362 11.3927 535.963 11.3968C535.282 11.3988 534.592 11.4006 533.893 11.402C533.548 11.4027 533.201 11.4034 532.852 11.404C531.348 11.4064 529.77 11.4067 528.275 11.4055C527.334 11.4045 526.381 11.4027 525.435 11.4001C522.996 11.3934 520.495 11.3808 518.015 11.3588C515.536 11.3368 513.018 11.3055 510.552 11.2605C508.056 11.2155 505.5 11.1536 502.984 11.0671C501.16 11.0027 499.288 10.8985 497.534 10.7917C496.609 10.7343 495.698 10.6762 494.796 10.618C494.793 10.6177 494.79 10.6174 494.787 10.6171C493.996 10.566 493.207 10.5153 492.431 10.467C490.782 10.3629 489.149 10.2688 487.504 10.1872C485.885 10.1057 484.264 10.0369 482.619 9.98071C480.997 9.92517 479.358 9.88119 477.715 9.84901C476.065 9.8166 474.47 9.79592 472.768 9.78265C470.53 9.7661 468.338 9.76365 466.053 9.76312C463.811 9.76334 461.523 9.76778 459.251 9.77248C458.456 9.77416 457.658 9.77517 456.858 9.7769C456.855 9.77687 456.852 9.77684 456.849 9.77682C455.368 9.77999 453.889 9.78325 452.407 9.78578C450.116 9.78963 447.822 9.79223 445.518 9.79048C443.212 9.78864 440.897 9.78279 438.566 9.76798C436.235 9.7527 433.846 9.7291 431.44 9.68C429.294 9.637 427.138 9.5858 425.022 9.53531C424.464 9.52201 423.906 9.50872 423.349 9.49545C420.707 9.43304 418.136 9.37951 415.605 9.35255C413.064 9.3248 410.546 9.32218 407.984 9.33954C405.448 9.35697 402.848 9.39307 400.264 9.44147C397.635 9.48984 395.09 9.54981 392.439 9.61713C389.841 9.68451 387.194 9.75849 384.562 9.83872C383.083 9.883 381.502 9.92242 380.031 9.95541C378.549 9.98872 377.031 10.0171 375.576 10.0435C374.98 10.0542 374.406 10.0644 373.804 10.0747C372.937 10.0898 372.083 10.1046 371.248 10.1206C370.625 10.1325 370.013 10.1449 369.409 10.1584C368.628 10.1753 367.862 10.1937 367.114 10.2143C365.773 10.2512 364.495 10.2959 363.221 10.3522C361.911 10.4107 360.866 10.4718 359.576 10.5604C356.439 10.7285 354.516 10.7772 352.37 10.8326C351.948 10.8435 351.527 10.8552 351.074 10.8676C348.474 10.9296 345.91 10.9751 343.383 11.0094C340.806 11.0436 338.29 11.0665 335.738 11.0797C333.203 11.0928 330.652 11.0957 328.12 11.0902C325.581 11.0848 323.039 11.0707 320.525 11.0479C317.966 11.0253 315.397 10.9933 312.911 10.9548C311.471 10.9327 309.951 10.9026 308.533 10.8719C307.531 10.8497 306.496 10.8267 305.517 10.8043C305.114 10.7951 304.727 10.786 304.323 10.7773C302.932 10.7472 301.636 10.72 300.332 10.702C299.059 10.6836 297.794 10.6738 296.591 10.6761C295.372 10.6784 294.182 10.6932 292.986 10.7206C291.74 10.7498 290.728 10.7837 289.409 10.8416C288.569 10.8795 287.711 10.9183 286.883 10.9571C285.645 11.0152 284.399 11.0752 283.144 11.1378C281.901 11.2003 280.652 11.2647 279.434 11.3319C279.029 11.3536 278.606 11.3767 278.208 11.399C276.988 11.4681 275.768 11.5395 274.538 11.6152C273.333 11.6904 272.125 11.7692 270.921 11.8526C270.531 11.8795 270.148 11.9068 269.77 11.9344C268.94 11.9931 268.163 12.0529 267.328 12.1168C265.278 12.2764 263.315 12.3724 261.598 12.4463C259.857 12.5203 258.225 12.5771 256.64 12.6325C256.343 12.6429 256.052 12.6532 255.75 12.6637C254.478 12.708 253.206 12.7517 251.969 12.7972C250.44 12.8533 248.935 12.9123 247.423 12.974C245.924 13.035 244.407 13.0991 242.91 13.1646C241.4 13.2308 239.953 13.2953 238.393 13.3658C236.85 13.435 235.281 13.5158 233.563 13.5961C231.971 13.6706 230.306 13.7406 228.617 13.7959C228.5 13.7998 228.383 13.8036 228.265 13.8074C226.459 13.8648 224.626 13.9058 222.808 13.9291C220.984 13.9526 219.162 13.9596 217.364 13.9525C215.556 13.9455 213.759 13.9243 211.97 13.8924C210.19 13.8607 208.352 13.8165 206.628 13.7656C203.843 13.6834 201.069 13.5902 198.291 13.4905C195.527 13.3911 192.76 13.2847 189.998 13.1736C187.24 13.0626 184.48 12.9469 181.726 12.8273C178.969 12.7077 176.214 12.5844 173.463 12.4585C173.24 12.4482 173.016 12.438 172.792 12.4277C172.408 12.41 172.023 12.3923 171.638 12.3746C169.497 12.2757 167.355 12.1755 165.226 12.0759C165.211 12.0751 165.197 12.0742 165.182 12.0734C162.44 11.9455 159.749 11.8196 157.033 11.6978C156.035 11.6533 155.077 11.6109 154.104 11.5694C153.13 11.5279 152.173 11.4885 151.208 11.4504C150.241 11.4122 149.283 11.3764 148.336 11.3434C147.381 11.3102 146.448 11.28 145.509 11.2537C144.647 11.2294 143.791 11.2095 142.856 11.1878C142.771 11.1859 142.686 11.1839 142.6 11.182C141.577 11.1584 140.414 11.1271 139.334 11.0882C136.472 10.9838 133.684 10.8941 130.847 10.8169C128.008 10.7398 125.176 10.6767 122.322 10.6251C121.207 10.6048 120.088 10.5868 118.968 10.5698C117.226 10.5433 115.478 10.5203 113.726 10.4997C111.315 10.4714 108.901 10.4473 106.476 10.4257C105.998 10.4214 105.52 10.4171 105.042 10.4125C102.135 10.3851 99.2104 10.352 96.301 10.3142C93.3939 10.2767 90.4642 10.2346 87.5728 10.1918C84.3509 10.144 81.1506 10.102 77.9445 10.0745C74.735 10.047 71.5371 10.0334 68.3543 10.0436C65.1582 10.0543 61.9801 10.0881 58.8192 10.1624C55.6503 10.238 52.5032 10.3515 49.3988 10.5478C49.1519 10.5636 48.9079 10.5796 48.6669 10.596C47.0246 10.7092 45.4095 10.8352 43.7874 10.9822C42.8024 11.1372 41.8723 11.2927 40.9716 11.4496C34.3478 12.6273 29.7116 13.736 23.683 15.5328C23.1092 15.7147 22.6446 15.8791 22.0827 16.082C21.9756 16.1207 21.8618 16.1616 21.7458 16.2037C21.0104 16.4716 20.1665 16.7793 18.988 17.1916C16.6257 18.0172 13.014 19.2503 8.16359 20.7494C6.95007 21.1229 6.00678 21.0069 6.0869 20.4633C6.13698 20.0849 6.69067 19.5932 7.426 19.211C5.97997 19.7286 4.52592 20.2627 3.08681 20.8028C2.50247 21.0224 1.94217 21.1414 1.49157 21.145C1.04407 21.1472 0.75985 21.0271 0.704726 20.8057C0.649286 20.5844 0.828192 20.2782 1.19613 19.955C1.56481 19.6316 2.0846 19.3218 2.66556 19.0828C4.18007 18.4601 5.71353 17.8434 7.23212 17.2481C8.74897 16.6535 10.2819 16.068 11.807 15.5074C13.3321 14.9468 14.8693 14.4033 16.4119 13.8859C17.9494 13.3701 19.4931 12.8804 21.0514 12.4181C22.6185 11.9535 24.1619 11.527 25.7396 11.1259C26.6848 10.8855 27.6448 10.6544 28.5892 10.4385C28.9409 10.3582 29.2858 10.2805 29.6309 10.2047C29.9116 10.1431 30.1947 10.0823 30.487 10.0205C33.5595 9.36844 36.6872 8.83012 39.8191 8.38367C42.6519 7.97973 45.4986 7.64743 48.367 7.36072C48.6699 7.3304 48.9771 7.30062 49.2886 7.2714C52.4451 6.97607 55.6329 6.76476 58.8235 6.59338C62.0157 6.42289 65.2071 6.29447 68.42 6.18956C71.6114 6.08534 74.8252 6.00574 78.0319 5.94085C80.5125 5.89074 82.9712 5.84926 85.4351 5.81351C86.4045 5.76465 87.3671 5.71948 88.3131 5.67693C91.0723 5.55305 93.8369 5.40025 96.5613 5.25472C91.7127 5.31443 87.8184 5.43825 84.116 5.5714C83.623 5.58928 83.1236 5.60758 82.6333 5.62578C77.613 5.81513 72.7689 5.99337 66.2601 6.14166C59.1932 6.30972 53.2741 6.58505 48.3347 7.01176C40.2799 7.70712 34.73 8.58224 30.7079 9.3289C24.2115 10.5709 21.4557 11.3045 18.807 11.7513C15.0584 12.3765 8.08773 14.6805 4.68345 16.0858C3.45051 16.5826 2.29251 16.6379 2.11595 16.1872C1.93128 15.7402 2.80262 14.9539 4.04561 14.4532C7.66328 12.9589 15.2747 10.4227 19.8091 9.71366C21.8247 9.40322 24.0754 8.80771 30.568 7.57167C34.5729 6.83436 40.1244 5.962 48.1729 5.2666C53.1645 4.83502 59.1254 4.55759 66.2572 4.38844C72.5531 4.24535 77.2217 4.07202 82.1978 3.88276C82.6842 3.86454 83.1759 3.8459 83.6737 3.82785C83.6768 3.82783 83.6799 3.82782 83.683 3.8278C88.2496 3.66224 93.2289 3.50516 99.9422 3.47222C102.056 3.46198 104.272 3.45271 106.532 3.44444C120.811 3.37931 136.908 3.65046 141.176 3.63902C142.146 3.63645 143.085 3.62923 144.074 3.62235C147.872 3.59634 152.459 3.57027 162.777 3.82762C165.034 3.88361 167.677 3.9652 170.56 4.06212C171.409 4.04648 172.256 4.03126 173.092 4.0166C176.524 3.95682 179.819 3.90817 182.757 3.90145C185.91 3.89423 188.825 3.78114 191.647 3.64175C192.458 3.60156 193.278 3.55838 194.093 3.51499C196.064 3.41049 198.03 3.30394 199.948 3.23081C201.481 3.17266 203.074 3.09448 204.77 3.01011C210.931 2.69761 218.313 2.32507 227.878 2.4023C228.153 2.40428 228.426 2.40615 228.695 2.40793C238.472 2.48275 246.858 2.37088 254.192 2.30201C248.658 2.31516 244.411 2.26842 240.879 2.19158C240.214 2.17732 239.573 2.16237 238.962 2.14702C234.879 2.0441 231.862 1.93328 228.698 1.90456C228.5 1.90268 228.3 1.9011 228.098 1.89984C211.924 1.75005 205.811 1.66176 198.935 1.91682C197.125 1.97889 195.119 2.07107 192.966 2.16794C188.66 2.36153 183.729 2.57289 178.436 2.60265C176.734 2.61209 174.971 2.62957 173.14 2.65153C169.666 2.69362 165.973 2.75273 162.141 2.81408C162.139 2.814 162.137 2.81392 162.134 2.81383C160.991 2.83209 159.836 2.85059 158.668 2.86892C151.557 2.98081 144.073 3.08766 136.794 3.10209C136.014 3.10358 135.083 3.1104 134.011 3.11936C128.27 3.17113 118.505 3.25996 106.536 3.00304C105.615 2.98355 104.684 2.96132 103.738 2.93611C100.83 2.85869 97.8081 2.72064 94.3596 2.57326C93.308 2.52842 92.2208 2.4823 91.078 2.4377C86.1585 2.24862 80.1854 2.05092 72.2126 2.06857C65.63 2.09863 57.6091 2.23426 49.2406 2.86983C48.8076 2.90386 48.3808 2.93903 47.9605 2.97538C44.2525 3.29653 40.5201 3.69893 36.8197 4.22924C24.3493 5.93355 13.1563 9.4758 2.55491 13.7014C2.55275 13.7023 2.55059 13.7032 2.54843 13.7041C1.2822 14.2045 0.162679 14.2346 0.0138586 13.7723C-0.123186 13.3059 0.765394 12.5222 2.04123 12.0187C12.7041 7.7713 24.0776 4.19265 36.6515 2.48303C40.3406 1.95619 44.0794 1.55256 47.7988 1.23036C48.2176 1.19411 48.6427 1.15902 49.0738 1.12507C57.5654 0.478709 65.7131 0.343423 72.3748 0.314456C80.5006 0.298475 86.5962 0.502332 91.5869 0.695642C92.7874 0.743045 93.9207 0.79075 94.991 0.836837C98.4058 0.983819 101.243 1.11508 104.003 1.18874C104.863 1.21175 105.711 1.23221 106.55 1.25032C118.227 1.50569 127.711 1.41543 133.506 1.36255C134.607 1.35314 135.576 1.34619 136.4 1.34443C143.544 1.32897 150.914 1.22242 158.022 1.11036C159.174 1.09211 160.323 1.07407 161.461 1.05583C161.463 1.05563 161.465 1.05543 161.468 1.05523C165.533 0.990155 169.487 0.927201 173.203 0.884802C174.836 0.866352 176.418 0.851714 177.949 0.843322C183.043 0.815125 187.49 0.623734 191.648 0.43755C193.88 0.337602 196.023 0.23952 198.146 0.167647C205.435 -0.0994916 211.887 -0.00206566 228.082 0.1479ZM9.67132 18.4179C12.6894 17.4837 15.107 16.6783 16.896 16.0623C15.3585 16.5261 13.8193 17.0171 12.2872 17.5274C11.4172 17.817 10.5399 18.1163 9.67132 18.4179ZM170.891 5.82612C170.369 5.83582 169.842 5.84561 169.313 5.85542C170.55 5.88863 171.788 5.92225 173.023 5.95533C173.243 5.96125 173.464 5.96715 173.684 5.97303C175.468 6.02057 177.261 6.06822 179.043 6.1145C176.979 6.03969 174.96 5.96699 173.025 5.89947C172.302 5.87425 171.59 5.84972 170.891 5.82612ZM227.887 4.15504C218.843 4.08232 212.061 4.42861 205.946 4.74098C204.185 4.82968 202.47 4.91296 200.784 4.97808C200.079 5.00492 199.384 5.03662 198.675 5.07074C202.779 5.21416 206.549 5.339 209.643 5.43464C218.832 5.71685 224.08 5.93041 228.67 6.0953C228.682 6.09573 228.694 6.09616 228.706 6.09658C230.044 6.14354 231.325 6.18475 232.629 6.21829C233.713 6.16025 234.833 6.09978 235.968 6.04299C237.555 5.96297 239.272 5.87795 240.905 5.79761C242.545 5.71699 244.21 5.636 245.847 5.55995C247.497 5.48327 249.134 5.41055 250.763 5.34181C252.296 5.27698 253.823 5.21601 255.301 5.15732C255.386 5.15397 255.471 5.15063 255.557 5.14727C257.119 5.08506 258.638 5.02554 260.044 4.95972C261.454 4.89283 262.657 4.82488 263.694 4.73896C265.018 4.63129 266.343 4.52795 267.683 4.43104C268.336 4.38366 268.973 4.33802 269.636 4.29333C270.3 4.24712 270.99 4.20199 271.664 4.15857C272.982 4.07355 274.297 3.99389 275.617 3.91842C276.038 3.8941 276.483 3.86903 276.91 3.84563C277.107 3.83484 277.305 3.82384 277.494 3.81336C274.962 3.84327 272.336 3.87515 269.629 3.90873C269.579 3.90936 269.528 3.91 269.478 3.91062C265.478 3.9601 261.225 3.98982 256.513 4.03335C248.676 4.09724 239.682 4.24287 228.683 4.16051C228.421 4.15878 228.156 4.15696 227.887 4.15504ZM316.537 3.35493C315.401 3.36247 313.785 3.38068 311.658 3.40612C311.157 3.41213 310.649 3.41903 310.082 3.42586C310.096 3.42624 310.109 3.42619 310.122 3.42656C311.491 3.46571 312.752 3.50014 314.123 3.53189C316.543 3.58829 318.919 3.63758 321.304 3.68065C323.702 3.72378 326.093 3.7601 328.482 3.78998C330.883 3.81989 333.277 3.84269 335.666 3.8581C338.067 3.87346 340.423 3.88209 342.844 3.88075C343.598 3.88031 344.356 3.87883 345.122 3.87638C343.427 3.82826 341.635 3.78826 339.775 3.74703C338.303 3.71412 336.698 3.6801 335.088 3.64055C334.458 3.6254 333.686 3.60243 332.803 3.57585C329.294 3.47073 323.774 3.30682 316.537 3.35493ZM364.226 3.46352C364.795 3.45467 365.329 3.44684 365.874 3.44093C367.075 3.42785 368.265 3.42133 369.446 3.41794C369.775 3.41693 370.103 3.41617 370.43 3.41558C371.465 3.41379 372.497 3.41429 373.521 3.41453C373.954 3.41463 374.388 3.41453 374.805 3.4145C375.51 3.41449 376.212 3.41372 376.913 3.41289C374.427 3.37044 371.904 3.33186 369.447 3.29997C367.022 3.26904 364.669 3.24425 362.196 3.22659C362.13 3.22612 362.064 3.22614 361.998 3.22567C362.753 3.30651 363.495 3.38583 364.226 3.46352Z" fill="#202638"/>
</svg>
