<svg width="32" height="32" viewBox="0 0 32 32" fill="none" xmlns="http://www.w3.org/2000/svg">
<path d="M19.7706 19.7706C20.28 19.2786 20.6863 18.6901 20.9658 18.0394C21.2454 17.3887 21.3925 16.6889 21.3986 15.9808C21.4048 15.2726 21.2699 14.5703 21.0017 13.9149C20.7335 13.2594 20.3375 12.6639 19.8367 12.1632C19.336 11.6624 18.7405 11.2664 18.0851 10.9982C17.4296 10.7301 16.7273 10.5951 16.0192 10.6013C15.311 10.6074 14.6112 10.7546 13.9605 11.0341C13.3098 11.3136 12.7213 11.7199 12.2293 12.2293C11.2578 13.2352 10.7202 14.5824 10.7324 15.9808C10.7445 17.3791 11.3054 18.7168 12.2943 19.7056C13.2831 20.6945 14.6208 21.2554 16.0192 21.2675C17.4175 21.2797 18.7648 20.7421 19.7706 19.7706Z" stroke="#D4D8E3" stroke-width="3" stroke-linecap="round" stroke-linejoin="round"/>
<path d="M12.2293 27.3133C12.7246 26.818 13.1174 26.2301 13.3855 25.583C13.6535 24.9359 13.7914 24.2424 13.7914 23.542C13.7914 22.8416 13.6535 22.148 13.3855 21.5009C13.1174 20.8538 12.7246 20.2659 12.2293 19.7706C11.7341 19.2754 11.1461 18.8825 10.499 18.6145C9.85192 18.3465 9.15838 18.2085 8.45798 18.2085C7.75758 18.2085 7.06403 18.3465 6.41695 18.6145C5.76986 18.8825 5.1819 19.2754 4.68665 19.7706" stroke="#D4D8E3" stroke-width="3" stroke-linecap="round" stroke-linejoin="round"/>
<path d="M19.7706 4.68665C18.7704 5.68687 18.2085 7.04345 18.2085 8.45798C18.2085 9.8725 18.7704 11.2291 19.7706 12.2293C20.7709 13.2295 22.1274 13.7914 23.542 13.7914C24.9565 13.7914 26.3131 13.2295 27.3133 12.2293" stroke="#D4D8E3" stroke-width="3" stroke-linecap="round" stroke-linejoin="round"/>
</svg>
