<svg width="173" height="42" viewBox="0 0 173 42" fill="none" xmlns="http://www.w3.org/2000/svg">
<path d="M19.7709 24.7706C20.2803 24.2786 20.6866 23.6901 20.9661 23.0394C21.2456 22.3887 21.3927 21.6889 21.3989 20.9808C21.405 20.2726 21.2701 19.5703 21.0019 18.9149C20.7338 18.2594 20.3378 17.6639 19.837 17.1632C19.3362 16.6624 18.7408 16.2664 18.0853 15.9982C17.4299 15.7301 16.7276 15.5951 16.0194 15.6013C15.3113 15.6074 14.6114 15.7546 13.9607 16.0341C13.31 16.3136 12.7215 16.7199 12.2296 17.2293C11.258 18.2352 10.7205 19.5824 10.7326 20.9808C10.7448 22.3791 11.3057 23.7168 12.2945 24.7056C13.2834 25.6945 14.621 26.2554 16.0194 26.2675C17.4178 26.2797 18.765 25.7421 19.7709 24.7706Z" stroke="#202638" stroke-width="3" stroke-linecap="round" stroke-linejoin="round"/>
<path d="M12.2292 32.3133C12.7244 31.818 13.1173 31.2301 13.3853 30.583C13.6534 29.9359 13.7913 29.2424 13.7913 28.542C13.7913 27.8416 13.6534 27.148 13.3853 26.5009C13.1173 25.8538 12.7244 25.2659 12.2292 24.7706C11.7339 24.2754 11.146 23.8825 10.4989 23.6145C9.8518 23.3465 9.15826 23.2085 8.45786 23.2085C7.75746 23.2085 7.06391 23.3465 6.41683 23.6145C5.76974 23.8825 5.18178 24.2754 4.68652 24.7706" stroke="#202638" stroke-width="3" stroke-linecap="round" stroke-linejoin="round"/>
<path d="M19.7706 9.68665C18.7704 10.6869 18.2085 12.0435 18.2085 13.458C18.2085 14.8725 18.7704 16.2291 19.7706 17.2293C20.7709 18.2295 22.1274 18.7914 23.542 18.7914C24.9565 18.7914 26.3131 18.2295 27.3133 17.2293" stroke="#202638" stroke-width="3" stroke-linecap="round" stroke-linejoin="round"/>
<path d="M42.584 33V24.52L35.736 9.64H39.928L43.576 17.736C43.8533 18.376 44.088 19.0053 44.28 19.624C44.472 20.2427 44.6 20.7227 44.664 21.064C44.7493 20.7227 44.8773 20.2427 45.048 19.624C45.24 19.0053 45.4747 18.376 45.752 17.736L49.304 9.64H53.464L46.616 24.52V33H42.584ZM61.5795 33.32C60.0862 33.32 58.7848 33.032 57.6755 32.456C56.5662 31.88 55.7022 31.08 55.0835 30.056C54.4862 29.0107 54.1875 27.7947 54.1875 26.408V21.992C54.1875 20.6053 54.4862 19.4 55.0835 18.376C55.7022 17.3307 56.5662 16.52 57.6755 15.944C58.7848 15.368 60.0862 15.08 61.5795 15.08C63.0515 15.08 64.3315 15.368 65.4195 15.944C66.5288 16.52 67.3822 17.3307 67.9795 18.376C68.5982 19.4 68.9075 20.6053 68.9075 21.992V25.16H58.0595V26.408C58.0595 27.6453 58.3582 28.584 58.9555 29.224C59.5528 29.8427 60.4382 30.152 61.6115 30.152C62.5075 30.152 63.2328 30.0027 63.7875 29.704C64.3422 29.384 64.6942 28.9253 64.8435 28.328H68.7795C68.4808 29.8427 67.6702 31.0587 66.3475 31.976C65.0462 32.872 63.4568 33.32 61.5795 33.32ZM65.0355 22.92V21.96C65.0355 20.744 64.7475 19.816 64.1715 19.176C63.5955 18.5147 62.7315 18.184 61.5795 18.184C60.4275 18.184 59.5528 18.5147 58.9555 19.176C58.3582 19.8373 58.0595 20.776 58.0595 21.992V22.664L65.3235 22.6L65.0355 22.92ZM75.935 33L70.143 15.4H74.239L77.599 26.088C77.791 26.728 77.9723 27.3893 78.143 28.072C78.335 28.7547 78.4737 29.2987 78.559 29.704C78.6657 29.2987 78.8043 28.7547 78.975 28.072C79.1457 27.3893 79.3163 26.7387 79.487 26.12L82.783 15.4H86.847L81.087 33H75.935ZM95.5705 33.32C94.0772 33.32 92.7652 33.0427 91.6345 32.488C90.5252 31.912 89.6612 31.112 89.0425 30.088C88.4452 29.0427 88.1465 27.816 88.1465 26.408V16.232C88.1465 14.8027 88.4452 13.576 89.0425 12.552C89.6612 11.528 90.5252 10.7387 91.6345 10.184C92.7652 9.608 94.0772 9.32 95.5705 9.32C97.0852 9.32 98.3865 9.608 99.4745 10.184C100.584 10.7387 101.448 11.528 102.066 12.552C102.685 13.576 102.994 14.8027 102.994 16.232H98.9625C98.9625 15.1227 98.6638 14.28 98.0665 13.704C97.4905 13.128 96.6585 12.84 95.5705 12.84C94.4825 12.84 93.6398 13.128 93.0425 13.704C92.4452 14.28 92.1465 15.112 92.1465 16.2V26.408C92.1465 27.496 92.4452 28.3387 93.0425 28.936C93.6398 29.5333 94.4825 29.832 95.5705 29.832C96.6585 29.832 97.4905 29.5333 98.0665 28.936C98.6638 28.3387 98.9625 27.496 98.9625 26.408V24.04H94.9945V20.584H102.994V26.408C102.994 27.816 102.685 29.0427 102.066 30.088C101.448 31.112 100.584 31.912 99.4745 32.488C98.3865 33.0427 97.0852 33.32 95.5705 33.32ZM112.422 33.32C110.929 33.32 109.627 33.032 108.518 32.456C107.409 31.88 106.545 31.08 105.926 30.056C105.329 29.0107 105.03 27.7947 105.03 26.408V21.992C105.03 20.6053 105.329 19.4 105.926 18.376C106.545 17.3307 107.409 16.52 108.518 15.944C109.627 15.368 110.929 15.08 112.422 15.08C113.894 15.08 115.174 15.368 116.262 15.944C117.371 16.52 118.225 17.3307 118.822 18.376C119.441 19.4 119.75 20.6053 119.75 21.992V25.16H108.902V26.408C108.902 27.6453 109.201 28.584 109.798 29.224C110.395 29.8427 111.281 30.152 112.454 30.152C113.35 30.152 114.075 30.0027 114.63 29.704C115.185 29.384 115.537 28.9253 115.686 28.328H119.622C119.323 29.8427 118.513 31.0587 117.19 31.976C115.889 32.872 114.299 33.32 112.422 33.32ZM115.878 22.92V21.96C115.878 20.744 115.59 19.816 115.014 19.176C114.438 18.5147 113.574 18.184 112.422 18.184C111.27 18.184 110.395 18.5147 109.798 19.176C109.201 19.8373 108.902 20.776 108.902 21.992V22.664L116.166 22.6L115.878 22.92ZM122.202 33V15.4H126.106V18.76H127.194L126.106 19.688C126.106 18.2373 126.522 17.1067 127.354 16.296C128.207 15.4853 129.37 15.08 130.842 15.08C132.57 15.08 133.946 15.656 134.97 16.808C136.015 17.96 136.538 19.5067 136.538 21.448V33H132.538V21.864C132.538 20.7973 132.26 19.976 131.706 19.4C131.151 18.824 130.372 18.536 129.37 18.536C128.388 18.536 127.61 18.8347 127.034 19.432C126.479 20.0293 126.202 20.8827 126.202 21.992V33H122.202ZM146.317 33.32C144.824 33.32 143.522 33.032 142.413 32.456C141.304 31.88 140.44 31.08 139.821 30.056C139.224 29.0107 138.925 27.7947 138.925 26.408V21.992C138.925 20.6053 139.224 19.4 139.821 18.376C140.44 17.3307 141.304 16.52 142.413 15.944C143.522 15.368 144.824 15.08 146.317 15.08C147.789 15.08 149.069 15.368 150.157 15.944C151.266 16.52 152.12 17.3307 152.717 18.376C153.336 19.4 153.645 20.6053 153.645 21.992V25.16H142.797V26.408C142.797 27.6453 143.096 28.584 143.693 29.224C144.29 29.8427 145.176 30.152 146.349 30.152C147.245 30.152 147.97 30.0027 148.525 29.704C149.08 29.384 149.432 28.9253 149.581 28.328H153.517C153.218 29.8427 152.408 31.0587 151.085 31.976C149.784 32.872 148.194 33.32 146.317 33.32ZM149.773 22.92V21.96C149.773 20.744 149.485 19.816 148.909 19.176C148.333 18.5147 147.469 18.184 146.317 18.184C145.165 18.184 144.29 18.5147 143.693 19.176C143.096 19.8373 142.797 20.776 142.797 21.992V22.664L150.061 22.6L149.773 22.92ZM162.561 33.288C161.216 33.288 160.043 33.0747 159.041 32.648C158.038 32.2213 157.248 31.6347 156.672 30.888C156.118 30.12 155.819 29.224 155.776 28.2H159.776C159.819 28.7547 160.086 29.2027 160.576 29.544C161.089 29.8853 161.75 30.056 162.561 30.056H163.969C164.95 30.056 165.686 29.864 166.177 29.48C166.667 29.096 166.913 28.5733 166.913 27.912C166.913 27.2933 166.689 26.8133 166.241 26.472C165.814 26.1093 165.142 25.8747 164.225 25.768L162.049 25.448C160.043 25.1707 158.571 24.6373 157.632 23.848C156.694 23.0587 156.224 21.8747 156.224 20.296C156.224 18.6533 156.779 17.384 157.888 16.488C158.998 15.5707 160.63 15.112 162.785 15.112H164C165.963 15.112 167.531 15.5493 168.705 16.424C169.878 17.2987 170.507 18.472 170.593 19.944H166.593C166.529 19.4747 166.262 19.0907 165.793 18.792C165.345 18.4933 164.747 18.344 164 18.344H162.785C161.867 18.344 161.195 18.5147 160.768 18.856C160.363 19.176 160.161 19.656 160.161 20.296C160.161 20.8933 160.342 21.3413 160.705 21.64C161.067 21.9173 161.654 22.12 162.465 22.248L164.736 22.568C166.827 22.8667 168.363 23.432 169.345 24.264C170.347 25.0747 170.849 26.28 170.849 27.88C170.849 29.5867 170.262 30.92 169.089 31.88C167.937 32.8187 166.23 33.288 163.969 33.288H162.561Z" fill="#202638"/>
</svg>
