<svg width="32" height="32" viewBox="0 0 32 32" fill="none" xmlns="http://www.w3.org/2000/svg">
<path d="M19.7709 19.7706C20.2803 19.2786 20.6866 18.6901 20.9661 18.0394C21.2456 17.3887 21.3927 16.6889 21.3989 15.9808C21.405 15.2726 21.2701 14.5703 21.0019 13.9149C20.7338 13.2594 20.3378 12.6639 19.837 12.1632C19.3362 11.6624 18.7408 11.2664 18.0853 10.9982C17.4299 10.7301 16.7276 10.5951 16.0194 10.6013C15.3113 10.6074 14.6114 10.7546 13.9607 11.0341C13.31 11.3136 12.7215 11.7199 12.2296 12.2293C11.258 13.2352 10.7205 14.5824 10.7326 15.9808C10.7448 17.3791 11.3057 18.7168 12.2945 19.7056C13.2834 20.6945 14.621 21.2554 16.0194 21.2675C17.4178 21.2797 18.765 20.7421 19.7709 19.7706Z" stroke="#202638" stroke-width="3" stroke-linecap="round" stroke-linejoin="round"/>
<path d="M12.2292 27.3133C12.7244 26.818 13.1173 26.2301 13.3853 25.583C13.6534 24.9359 13.7913 24.2424 13.7913 23.542C13.7913 22.8416 13.6534 22.148 13.3853 21.5009C13.1173 20.8538 12.7244 20.2659 12.2292 19.7706C11.7339 19.2754 11.146 18.8825 10.4989 18.6145C9.8518 18.3465 9.15826 18.2085 8.45786 18.2085C7.75746 18.2085 7.06391 18.3465 6.41683 18.6145C5.76974 18.8825 5.18178 19.2754 4.68652 19.7706" stroke="#202638" stroke-width="3" stroke-linecap="round" stroke-linejoin="round"/>
<path d="M19.7706 4.68665C18.7704 5.68687 18.2085 7.04345 18.2085 8.45798C18.2085 9.8725 18.7704 11.2291 19.7706 12.2293C20.7709 13.2295 22.1274 13.7914 23.542 13.7914C24.9565 13.7914 26.3131 13.2295 27.3133 12.2293" stroke="#202638" stroke-width="3" stroke-linecap="round" stroke-linejoin="round"/>
</svg>
