<svg width="21" height="21" viewBox="0 0 21 21" fill="none" xmlns="http://www.w3.org/2000/svg">
<path d="M10.5001 2.62504C10.6156 2.62504 10.7302 2.62504 10.8439 2.62504C9.71985 3.66954 8.99732 5.07491 8.80193 6.59686C8.60654 8.11882 8.95065 9.66112 9.77445 10.9557C10.5982 12.2502 11.8496 13.2152 13.3111 13.6828C14.7725 14.1505 16.3516 14.0912 17.7739 13.5153C17.2268 14.8317 16.3326 15.9749 15.1867 16.823C14.0408 17.6711 12.6862 18.1922 11.2673 18.3308C9.8485 18.4693 8.41866 18.2201 7.13033 17.6098C5.84201 16.9994 4.74353 16.0508 3.95207 14.8651C3.16061 13.6794 2.70586 12.301 2.63633 10.8771C2.56679 9.45324 2.88509 8.03718 3.55725 6.77999C4.22942 5.52281 5.23024 4.47166 6.45297 3.73868C7.6757 3.0057 9.07446 2.61839 10.5001 2.61804V2.62504Z" stroke="#202638" stroke-width="1.33333" stroke-linecap="round" stroke-linejoin="round"/>
<path d="M14.875 3.5C14.875 3.96413 15.0594 4.40925 15.3876 4.73744C15.7158 5.06563 16.1609 5.25 16.625 5.25C16.1609 5.25 15.7158 5.43437 15.3876 5.76256C15.0594 6.09075 14.875 6.53587 14.875 7C14.875 6.53587 14.6906 6.09075 14.3624 5.76256C14.0342 5.43437 13.5891 5.25 13.125 5.25C13.5891 5.25 14.0342 5.06563 14.3624 4.73744C14.6906 4.40925 14.875 3.96413 14.875 3.5Z" stroke="#202638" stroke-width="1.33333" stroke-linecap="round" stroke-linejoin="round"/>
<path d="M16.625 9.625H18.375M17.5 8.75V10.5" stroke="#202638" stroke-width="1.33333" stroke-linecap="round" stroke-linejoin="round"/>
</svg>
