<svg viewBox="0 0 1783.14 1440.02" xmlns="http://www.w3.org/2000/svg" xmlns:xlink="http://www.w3.org/1999/xlink" width="1783.136108" height="1440.016479" fill="none" customFrame="#000000">
	<path id="Vector 1" d="M441.003 531.002C346.496 501.322 199.003 455.002 199.003 455.002M1.0033 605.002C78.3271 546.423 199.003 455.002 199.003 455.002C199.003 455.002 376.97 374.551 491.003 323.002C635.497 297.227 716.509 282.777 861.003 257.002C994.563 251.535 1069.44 248.469 1203 243.002C1413.11 255.889 1530.9 263.115 1741 276.002M491.003 323.002C555.83 365.179 592.176 388.825 657.003 431.002C710.115 477.865 739.892 504.139 793.003 551.002M657.003 431.002C572.65 470.055 525.357 491.95 441.003 531.002C346.496 605.202 293.51 646.802 199.003 721.002C125.585 764.741 84.4219 789.263 11.0033 833.002M441.003 531.002C469.902 623.166 486.104 674.838 515.003 767.002C535.311 859.947 546.696 912.057 567.003 1005M515.003 767.002C391.598 749.038 322.409 738.966 199.003 721.002M515.003 767.002C623.569 682.649 684.438 635.355 793.003 551.002C874.232 497.891 919.774 468.113 1001 415.002C1079.89 347.832 1124.12 310.172 1203 243.002M793.003 551.002C822.683 627.154 839.323 669.85 869.003 746.002M869.003 746.002C730.758 754.203 653.249 758.801 515.003 767.002M1001 415.002C1027.17 500.917 1041.84 549.087 1068 635.002M1468.96 620.002C1452.19 620.002 1334.67 635.335 1278 643.002C1195.99 639.878 1150.01 638.126 1068 635.002C990.289 678.35 946.718 702.654 869.003 746.002C771.67 812.002 579.803 1005 567.003 1005M1001 415.002C866.663 421.25 791.344 424.754 657.003 431.002M1.0033 605.002C78.3271 650.303 121.679 675.701 199.003 721.002M199.003 455.002C199.003 455.002 78.3271 314.823 1.0033 225.002M1.0033 225.002C192.36 263.273 299.646 284.731 491.003 323.002M1001 415.002C946.33 353.299 915.677 318.705 861.003 257.002M861.003 257.002C781.336 324.953 736.67 363.051 657.003 431.002M1741 276.002C1642.2 343.953 1586.81 382.051 1488 450.002C1376.7 448.049 1314.3 446.955 1203 445.002C1124.12 433.286 1079.89 426.718 1001 415.002M1203 243.002C1203 321.888 1203 366.116 1203 445.002M869.003 746.002C984.989 790.131 1166 859.002 1166 859.002M1448 807.002C1337.88 827.309 1166 859.002 1166 859.002M1094 1000L1166 859.002C1166 859.002 1234.26 727.355 1278 643.002M1278 643.002C1248.71 565.678 1232.29 522.326 1203 445.002M1488 450.002C1376.7 369.164 1314.3 323.841 1203 243.002M1448 807.002C1556.18 834.729 1616.83 850.275 1725 878.002M1488 450.002C1480.56 516.391 1476.39 553.613 1468.96 620.002C1460.77 693.03 1456.19 733.974 1448 807.002C1428.09 908.929 1397 1068 1397 1068C1397 1068 1428.09 1170.39 1448 1236C1451.34 1304.34 1456 1440.6 1448 1439C1440 1437.4 1191.34 1418.34 1068 1409C939.911 1409 740.003 1409 740.003 1409M1448 1236C1524.34 1212 1741 1154.4 1741 1116C1741 1077.6 1730.34 941.335 1725 878.002C1728.03 763.969 1729.73 700.035 1732.76 586.002C1735.98 464.94 1737.79 397.065 1741 276.002C1700 175.637 1677.01 119.367 1636 19.0021C1483.7 11.9726 1398.31 8.03151 1246 1.00208C1110.88 13.4989 1035.12 20.5053 900.003 33.0021C726.61 61.9009 629.396 78.1033 456.003 107.002C278.315 153.084 178.692 178.92 1.0033 225.002C1.0033 373.401 1.0033 456.603 1.0033 605.002C4.90854 694.042 7.09805 743.963 11.0033 833.002C7.09805 924.775 4.90854 976.229 1.0033 1068C17.0148 1169.15 25.9918 1225.86 42.0033 1327C179.468 1327 394.003 1327 394.003 1327L396.091 1326.09L688.003 1198M1468.96 620.002C1571.98 606.724 1629.74 599.28 1732.76 586.002M11.0033 833.002C139.095 880.255 339.003 954.002 339.003 954.002C339.003 954.002 477.964 985.085 567.003 1005C681.817 1015.55 746.189 1021.46 861.003 1032C872.203 1032 1021 1010.67 1094 1000L1397 1068M339.003 954.002C339.003 954.002 253.677 811.994 199.003 721.002M515.003 767.002C446.271 840.03 339.003 954.002 339.003 954.002M869.003 746.002C865.879 857.692 864.128 920.312 861.003 1032M1397 1068C1397 1068 1596.91 952.202 1725 878.002M1166 859.002L1281.5 963.502L1397 1068M339.003 954.002C339.003 954.002 83.3366 1030 1.0033 1068M1.0033 1068C133.001 1093.78 207.006 1108.23 339.003 1134C475.296 1159 688.003 1198 688.003 1198C688.003 1198 817.212 1210.19 900.003 1218C1010.13 1210.19 1071.88 1205.81 1182 1198C1198.8 1198 1366.34 1223.34 1448 1236M339.003 1134C428.043 1083.62 477.964 1055.38 567.003 1005M688.003 1198C688.003 1198 614.257 1080.37 567.003 1005M688.003 1198C694.403 1202.8 806.003 1089.34 861.003 1032M861.003 1032C876.234 1104.64 884.773 1145.36 900.003 1218M1182 1198C1147.64 1120.68 1094 1000 1094 1000M456.003 107.002C469.672 191.355 477.335 238.649 491.003 323.002M861.003 257.002C702.841 198.423 614.166 165.581 456.003 107.002M861.003 257.002C876.234 169.525 884.773 120.48 900.003 33.0021M1246 1.00208C1229.21 95.509 1219.8 148.495 1203 243.002M1636 19.0021C1466.91 106.48 1372.1 155.525 1203 243.002M339.003 1134C223.018 1209.37 157.989 1251.63 42.0033 1327M339.003 1134C360.482 1209.37 394.003 1327 394.003 1327M900.003 1218C848.225 1285.13 748.003 1417 740.003 1409C732.003 1401 702.003 1265 688.003 1198M396.091 1326.09L740.003 1409M1068 1409C1112.52 1326.6 1137.48 1280.4 1182 1198M1448 1439C1464.77 1439 1698.99 1363.72 1782 1326.09L1741 1116" fill-rule="evenodd" stroke="rgb(82,123,205)" stroke-opacity="0.100000001" stroke-width="2" />
</svg>
