<svg width="28" height="28" viewBox="0 0 28 28" fill="none" xmlns="http://www.w3.org/2000/svg">
<path d="M9.3335 14C9.3335 15.2377 9.82516 16.4247 10.7003 17.2999C11.5755 18.175 12.7625 18.6667 14.0002 18.6667C15.2378 18.6667 16.4248 18.175 17.3 17.2999C18.1752 16.4247 18.6668 15.2377 18.6668 14C18.6668 12.7624 18.1752 11.5754 17.3 10.7002C16.4248 9.82504 15.2378 9.33337 14.0002 9.33337C12.7625 9.33337 11.5755 9.82504 10.7003 10.7002C9.82516 11.5754 9.3335 12.7624 9.3335 14Z" stroke="#D4D8E3" stroke-width="1.33333" stroke-linecap="round" stroke-linejoin="round"/>
<path d="M3.5 14H4.66667M14 3.5V4.66667M23.3333 14H24.5M14 23.3333V24.5M6.53333 6.53333L7.35 7.35M21.4667 6.53333L20.65 7.35M20.65 20.65L21.4667 21.4667M7.35 20.65L6.53333 21.4667" stroke="#D4D8E3" stroke-width="1.33333" stroke-linecap="round" stroke-linejoin="round"/>
</svg>
