<svg width="32" height="32" viewBox="0 0 32 32" fill="none" xmlns="http://www.w3.org/2000/svg">
<g opacity="0.7">
<path d="M4 7.99992C4 7.29267 4.28095 6.6144 4.78105 6.1143C5.28115 5.6142 5.95942 5.33325 6.66667 5.33325H25.3333C26.0406 5.33325 26.7189 5.6142 27.219 6.1143C27.719 6.6144 28 7.29267 28 7.99992V23.9999C28 24.7072 27.719 25.3854 27.219 25.8855C26.7189 26.3856 26.0406 26.6666 25.3333 26.6666H6.66667C5.95942 26.6666 5.28115 26.3856 4.78105 25.8855C4.28095 25.3854 4 24.7072 4 23.9999V7.99992Z" stroke="#D4D8E3" stroke-width="2" stroke-linecap="round" stroke-linejoin="round"/>
<path d="M9.33325 10.6667H22.6666" stroke="#D4D8E3" stroke-width="2" stroke-linecap="round" stroke-linejoin="round"/>
<path d="M9.33325 16H22.6666" stroke="#D4D8E3" stroke-width="2" stroke-linecap="round" stroke-linejoin="round"/>
<path d="M9.33325 21.3333H22.6666" stroke="#D4D8E3" stroke-width="2" stroke-linecap="round" stroke-linejoin="round"/>
</g>
</svg>
