<svg width="32" height="32" viewBox="0 0 32 32" fill="none" xmlns="http://www.w3.org/2000/svg">
<g opacity="0.7">
<path d="M12.0001 6.66675H9.33341C8.62617 6.66675 7.94789 6.9477 7.4478 7.4478C6.9477 7.94789 6.66675 8.62617 6.66675 9.33341V25.3334C6.66675 26.0407 6.9477 26.7189 7.4478 27.219C7.94789 27.7191 8.62617 28.0001 9.33341 28.0001H22.6667C23.374 28.0001 24.0523 27.7191 24.5524 27.219C25.0525 26.7189 25.3334 26.0407 25.3334 25.3334V9.33341C25.3334 8.62617 25.0525 7.94789 24.5524 7.4478C24.0523 6.9477 23.374 6.66675 22.6667 6.66675H20.0001" stroke="#D4D8E3" stroke-width="2" stroke-linecap="round" stroke-linejoin="round"/>
<path d="M12 6.66667C12 5.95942 12.281 5.28115 12.781 4.78105C13.2811 4.28095 13.9594 4 14.6667 4H17.3333C18.0406 4 18.7189 4.28095 19.219 4.78105C19.719 5.28115 20 5.95942 20 6.66667C20 7.37391 19.719 8.05219 19.219 8.55229C18.7189 9.05238 18.0406 9.33333 17.3333 9.33333H14.6667C13.9594 9.33333 13.2811 9.05238 12.781 8.55229C12.281 8.05219 12 7.37391 12 6.66667Z" stroke="#D4D8E3" stroke-width="2" stroke-linecap="round" stroke-linejoin="round"/>
<path d="M18.6666 14.6667H15.3333C14.8028 14.6667 14.2941 14.8775 13.919 15.2525C13.544 15.6276 13.3333 16.1363 13.3333 16.6667C13.3333 17.1972 13.544 17.7059 13.919 18.081C14.2941 18.456 14.8028 18.6667 15.3333 18.6667H16.6666C17.197 18.6667 17.7057 18.8775 18.0808 19.2525C18.4559 19.6276 18.6666 20.1363 18.6666 20.6667C18.6666 21.1972 18.4559 21.7059 18.0808 22.081C17.7057 22.456 17.197 22.6667 16.6666 22.6667H13.3333" stroke="#D4D8E3" stroke-width="2" stroke-linecap="round" stroke-linejoin="round"/>
<path d="M16 22.6666V23.9999M16 13.3333V14.6666" stroke="#D4D8E3" stroke-width="2" stroke-linecap="round" stroke-linejoin="round"/>
</g>
</svg>
