<svg width="32" height="32" viewBox="0 0 32 32" fill="none" xmlns="http://www.w3.org/2000/svg">
<g opacity="0.7">
<path d="M4 11.9999C4 11.2927 4.28095 10.6144 4.78105 10.1143C5.28115 9.6142 5.95942 9.33325 6.66667 9.33325H25.3333C26.0406 9.33325 26.7189 9.6142 27.219 10.1143C27.719 10.6144 28 11.2927 28 11.9999V23.9999C28 24.7072 27.719 25.3854 27.219 25.8855C26.7189 26.3856 26.0406 26.6666 25.3333 26.6666H6.66667C5.95942 26.6666 5.28115 26.3856 4.78105 25.8855C4.28095 25.3854 4 24.7072 4 23.9999V11.9999Z" stroke="#D4D8E3" stroke-width="2" stroke-linecap="round" stroke-linejoin="round"/>
<path d="M10.6667 9.33333V6.66667C10.6667 5.95942 10.9477 5.28115 11.4478 4.78105C11.9479 4.28095 12.6262 4 13.3334 4H18.6667C19.374 4 20.0523 4.28095 20.5524 4.78105C21.0525 5.28115 21.3334 5.95942 21.3334 6.66667V9.33333" stroke="#D4D8E3" stroke-width="2" stroke-linecap="round" stroke-linejoin="round"/>
<path d="M16 16V16.0133" stroke="#D4D8E3" stroke-width="2" stroke-linecap="round" stroke-linejoin="round"/>
<path d="M4 17.3333C7.72211 19.2088 11.832 20.1858 16 20.1858C20.168 20.1858 24.2779 19.2088 28 17.3333" stroke="#D4D8E3" stroke-width="2" stroke-linecap="round" stroke-linejoin="round"/>
</g>
</svg>
