<!-- Generated by IcoMoon.io -->
<svg version="1.1" xmlns="http://www.w3.org/2000/svg" width="32" height="32" viewBox="0 0 32 32">
<path fill="none" opacity="0.7" stroke="#d4d8e3" stroke-linejoin="round" stroke-linecap="round" stroke-miterlimit="4" stroke-width="2" d="M6.667 5.333h5.333c0.354 0 0.693 0.14 0.943 0.391s0.391 0.589 0.391 0.943v8c0 0.354-0.14 0.693-0.391 0.943s-0.589 0.39-0.943 0.39h-5.333c-0.354 0-0.693-0.14-0.943-0.39s-0.391-0.589-0.391-0.943v-8c0-0.354 0.14-0.693 0.391-0.943s0.589-0.391 0.943-0.391z"></path>
<path fill="none" opacity="0.7" stroke="#d4d8e3" stroke-linejoin="round" stroke-linecap="round" stroke-miterlimit="4" stroke-width="2" d="M6.667 21.333h5.333c0.354 0 0.693 0.14 0.943 0.39s0.391 0.589 0.391 0.943v2.667c0 0.354-0.14 0.693-0.391 0.943s-0.589 0.39-0.943 0.39h-5.333c-0.354 0-0.693-0.14-0.943-0.39s-0.391-0.589-0.391-0.943v-2.667c0-0.354 0.14-0.693 0.391-0.943s0.589-0.39 0.943-0.39z"></path>
<path fill="none" opacity="0.7" stroke="#d4d8e3" stroke-linejoin="round" stroke-linecap="round" stroke-miterlimit="4" stroke-width="2" d="M20 16h5.333c0.354 0 0.693 0.14 0.943 0.39s0.39 0.589 0.39 0.943v8c0 0.354-0.14 0.693-0.39 0.943s-0.589 0.391-0.943 0.391h-5.333c-0.354 0-0.693-0.14-0.943-0.391s-0.391-0.589-0.391-0.943v-8c0-0.354 0.14-0.693 0.391-0.943s0.589-0.39 0.943-0.39z"></path>
<path fill="none" opacity="0.7" stroke="#d4d8e3" stroke-linejoin="round" stroke-linecap="round" stroke-miterlimit="4" stroke-width="2" d="M20 5.333h5.333c0.354 0 0.693 0.14 0.943 0.391s0.39 0.589 0.39 0.943v2.667c0 0.354-0.14 0.693-0.39 0.943s-0.589 0.39-0.943 0.39h-5.333c-0.354 0-0.693-0.14-0.943-0.39s-0.391-0.589-0.391-0.943v-2.667c0-0.354 0.14-0.693 0.391-0.943s0.589-0.391 0.943-0.391z"></path>
</svg>
