<svg width="32" height="33" viewBox="0 0 32 33" fill="none" xmlns="http://www.w3.org/2000/svg">
<g opacity="0.7">
<path d="M4 9.66667C4 8.95942 4.28095 8.28115 4.78105 7.78105C5.28115 7.28095 5.95942 7 6.66667 7H25.3333C26.0406 7 26.7189 7.28095 27.219 7.78105C27.719 8.28115 28 8.95942 28 9.66667V23C28 23.7072 27.719 24.3855 27.219 24.8856C26.7189 25.3857 26.0406 25.6667 25.3333 25.6667H6.66667C5.95942 25.6667 5.28115 25.3857 4.78105 24.8856C4.28095 24.3855 4 23.7072 4 23V9.66667Z" stroke="#D4D8E3" stroke-width="2" stroke-linecap="round" stroke-linejoin="round"/>
<path d="M8 10.8889H8.01333" stroke="#D4D8E3" stroke-width="2" stroke-linecap="round" stroke-linejoin="round"/>
<path d="M12 10.8889H12.0133" stroke="#D4D8E3" stroke-width="2" stroke-linecap="round" stroke-linejoin="round"/>
</g>
</svg>
