<svg width="32" height="32" viewBox="0 0 32 32" fill="none" xmlns="http://www.w3.org/2000/svg">
<g opacity="0.7">
<path d="M6.66659 5.33325H11.9999C12.3535 5.33325 12.6927 5.47373 12.9427 5.72378C13.1928 5.97383 13.3333 6.31296 13.3333 6.66659V14.6666C13.3333 15.0202 13.1928 15.3593 12.9427 15.6094C12.6927 15.8594 12.3535 15.9999 11.9999 15.9999H6.66659C6.31296 15.9999 5.97383 15.8594 5.72378 15.6094C5.47373 15.3593 5.33325 15.0202 5.33325 14.6666V6.66659C5.33325 6.31296 5.47373 5.97383 5.72378 5.72378C5.97383 5.47373 6.31296 5.33325 6.66659 5.33325Z" stroke="#D4D8E3" stroke-width="2" stroke-linecap="round" stroke-linejoin="round"/>
<path d="M6.66659 21.3333H11.9999C12.3535 21.3333 12.6927 21.4737 12.9427 21.7238C13.1928 21.9738 13.3333 22.313 13.3333 22.6666V25.3333C13.3333 25.6869 13.1928 26.026 12.9427 26.2761C12.6927 26.5261 12.3535 26.6666 11.9999 26.6666H6.66659C6.31296 26.6666 5.97383 26.5261 5.72378 26.2761C5.47373 26.026 5.33325 25.6869 5.33325 25.3333V22.6666C5.33325 22.313 5.47373 21.9738 5.72378 21.7238C5.97383 21.4737 6.31296 21.3333 6.66659 21.3333Z" stroke="#D4D8E3" stroke-width="2" stroke-linecap="round" stroke-linejoin="round"/>
<path d="M20.0001 16H25.3334C25.687 16 26.0262 16.1405 26.2762 16.3905C26.5263 16.6406 26.6667 16.9797 26.6667 17.3333V25.3333C26.6667 25.687 26.5263 26.0261 26.2762 26.2761C26.0262 26.5262 25.687 26.6667 25.3334 26.6667H20.0001C19.6465 26.6667 19.3073 26.5262 19.0573 26.2761C18.8072 26.0261 18.6667 25.687 18.6667 25.3333V17.3333C18.6667 16.9797 18.8072 16.6406 19.0573 16.3905C19.3073 16.1405 19.6465 16 20.0001 16Z" stroke="#D4D8E3" stroke-width="2" stroke-linecap="round" stroke-linejoin="round"/>
<path d="M20.0001 5.33325H25.3334C25.687 5.33325 26.0262 5.47373 26.2762 5.72378C26.5263 5.97383 26.6667 6.31296 26.6667 6.66659V9.33325C26.6667 9.68687 26.5263 10.026 26.2762 10.2761C26.0262 10.5261 25.687 10.6666 25.3334 10.6666H20.0001C19.6465 10.6666 19.3073 10.5261 19.0573 10.2761C18.8072 10.026 18.6667 9.68687 18.6667 9.33325V6.66659C18.6667 6.31296 18.8072 5.97383 19.0573 5.72378C19.3073 5.47373 19.6465 5.33325 20.0001 5.33325Z" stroke="#D4D8E3" stroke-width="2" stroke-linecap="round" stroke-linejoin="round"/>
</g>
</svg>
