<!-- Generated by IcoMoon.io -->
<svg version="1.1" xmlns="http://www.w3.org/2000/svg" width="32" height="32" viewBox="0 0 32 32">
<path fill="none" opacity="0.7" stroke="#d4d8e3" stroke-linejoin="round" stroke-linecap="round" stroke-miterlimit="4" stroke-width="2" d="M4 28h24"></path>
<path fill="none" opacity="0.7" stroke="#d4d8e3" stroke-linejoin="round" stroke-linecap="round" stroke-miterlimit="4" stroke-width="2" d="M4 9.333v1.333c0 1.061 0.421 2.078 1.172 2.828s1.768 1.172 2.828 1.172 2.078-0.421 2.828-1.172c0.75-0.75 1.172-1.768 1.172-2.828M4 9.333h24M4 9.333l2.667-5.333h18.667l2.667 5.333M12 10.667v-1.333M12 10.667c0 1.061 0.421 2.078 1.172 2.828s1.768 1.172 2.828 1.172 2.078-0.421 2.828-1.172c0.75-0.75 1.172-1.768 1.172-2.828M20 10.667v-1.333M20 10.667c0 1.061 0.421 2.078 1.172 2.828s1.767 1.172 2.828 1.172 2.078-0.421 2.828-1.172c0.75-0.75 1.172-1.768 1.172-2.828v-1.333"></path>
<path fill="none" opacity="0.7" stroke="#d4d8e3" stroke-linejoin="round" stroke-linecap="round" stroke-miterlimit="4" stroke-width="2" d="M6.667 28v-13.533"></path>
<path fill="none" opacity="0.7" stroke="#d4d8e3" stroke-linejoin="round" stroke-linecap="round" stroke-miterlimit="4" stroke-width="2" d="M25.333 28v-13.533"></path>
<path fill="none" opacity="0.7" stroke="#d4d8e3" stroke-linejoin="round" stroke-linecap="round" stroke-miterlimit="4" stroke-width="2" d="M12 28v-5.333c0-0.707 0.281-1.386 0.781-1.886s1.178-0.781 1.886-0.781h2.667c0.707 0 1.386 0.281 1.886 0.781s0.781 1.178 0.781 1.886v5.333"></path>
</svg>
