<!-- Generated by IcoMoon.io -->
<svg version="1.1" xmlns="http://www.w3.org/2000/svg" width="32" height="32" viewBox="0 0 32 32">
<path fill="none" opacity="0.7" stroke="#d4d8e3" stroke-linejoin="round" stroke-linecap="round" stroke-miterlimit="4" stroke-width="2" d="M12 6.667h-2.667c-0.707 0-1.386 0.281-1.886 0.781s-0.781 1.178-0.781 1.886v16c0 0.707 0.281 1.386 0.781 1.886s1.178 0.781 1.886 0.781h13.333c0.707 0 1.386-0.281 1.886-0.781s0.781-1.178 0.781-1.886v-16c0-0.707-0.281-1.386-0.781-1.886s-1.178-0.781-1.886-0.781h-2.667"></path>
<path fill="none" opacity="0.7" stroke="#d4d8e3" stroke-linejoin="round" stroke-linecap="round" stroke-miterlimit="4" stroke-width="2" d="M12 6.667c0-0.707 0.281-1.386 0.781-1.886s1.178-0.781 1.886-0.781h2.667c0.707 0 1.386 0.281 1.886 0.781s0.781 1.178 0.781 1.886-0.281 1.386-0.781 1.886c-0.5 0.5-1.178 0.781-1.886 0.781h-2.667c-0.707 0-1.386-0.281-1.886-0.781s-0.781-1.178-0.781-1.886z"></path>
<path fill="none" opacity="0.7" stroke="#d4d8e3" stroke-linejoin="round" stroke-linecap="round" stroke-miterlimit="4" stroke-width="2" d="M18.667 14.667h-3.333c-0.53 0-1.039 0.211-1.414 0.586s-0.586 0.884-0.586 1.414c0 0.53 0.211 1.039 0.586 1.414s0.884 0.586 1.414 0.586h1.333c0.53 0 1.039 0.211 1.414 0.586s0.586 0.884 0.586 1.414c0 0.53-0.211 1.039-0.586 1.414s-0.884 0.586-1.414 0.586h-3.333"></path>
<path fill="none" opacity="0.7" stroke="#d4d8e3" stroke-linejoin="round" stroke-linecap="round" stroke-miterlimit="4" stroke-width="2" d="M16 22.667v1.333M16 13.333v1.333"></path>
</svg>
